<svg width="118" height="29" viewBox="0 0 118 29" fill="none" xmlns="http://www.w3.org/2000/svg">
<path d="M1.72159 23V5.54545H13.0739V8.19602H4.88352V12.9347H12.4858V15.5852H4.88352V20.3494H13.142V23H1.72159ZM18.5412 23H15.1662L21.3111 5.54545H25.2145L31.3679 23H27.9929L23.331 9.125H23.1946L18.5412 23ZM18.652 16.1562H27.8565V18.696H18.652V16.1562ZM42.8714 10.3438C42.7919 9.59943 42.4567 9.01989 41.8658 8.60511C41.2805 8.19034 40.5192 7.98295 39.5817 7.98295C38.9226 7.98295 38.3572 8.08239 37.8857 8.28125C37.4141 8.48011 37.0533 8.75 36.8033 9.09091C36.5533 9.43182 36.4254 9.82102 36.4197 10.2585C36.4197 10.6222 36.5021 10.9375 36.6669 11.2045C36.8374 11.4716 37.0675 11.6989 37.3572 11.8864C37.647 12.0682 37.968 12.2216 38.3203 12.3466C38.6726 12.4716 39.0277 12.5767 39.3857 12.6619L41.022 13.071C41.6811 13.2244 42.3146 13.4318 42.9226 13.6932C43.5362 13.9545 44.0845 14.2841 44.5675 14.6818C45.0561 15.0795 45.4425 15.5597 45.7266 16.1222C46.0107 16.6847 46.1527 17.3437 46.1527 18.0994C46.1527 19.1222 45.8913 20.0227 45.3686 20.8011C44.8459 21.5739 44.0902 22.179 43.1016 22.6165C42.1186 23.0483 40.9283 23.2642 39.5305 23.2642C38.1726 23.2642 36.9936 23.054 35.9936 22.6335C34.9993 22.2131 34.2209 21.5994 33.6584 20.7926C33.1016 19.9858 32.8004 19.0028 32.755 17.8438H35.8658C35.9112 18.4517 36.0987 18.9574 36.4283 19.3608C36.7578 19.7642 37.1868 20.0653 37.7152 20.2642C38.2493 20.4631 38.8459 20.5625 39.505 20.5625C40.1925 20.5625 40.7947 20.4602 41.3118 20.2557C41.8345 20.0455 42.2436 19.7557 42.5391 19.3864C42.8345 19.0114 42.9851 18.5739 42.9908 18.0739C42.9851 17.6193 42.8516 17.2443 42.5902 16.9489C42.3288 16.6477 41.9624 16.3977 41.4908 16.1989C41.0249 15.9943 40.4794 15.8125 39.8544 15.6534L37.8686 15.142C36.4311 14.7727 35.2947 14.2131 34.4595 13.4631C33.63 12.7074 33.2152 11.7045 33.2152 10.4545C33.2152 9.42614 33.4936 8.52557 34.0504 7.75284C34.6129 6.98011 35.3771 6.38068 36.343 5.95454C37.3089 5.52273 38.4027 5.30682 39.6243 5.30682C40.8629 5.30682 41.9482 5.52273 42.88 5.95454C43.8175 6.38068 44.5533 6.97443 45.0874 7.73579C45.6214 8.49148 45.897 9.3608 45.9141 10.3438H42.8714ZM47.7784 5.54545H51.3494L55.6193 13.267H55.7898L60.0597 5.54545H63.6307L57.2812 16.4886V23H54.1278V16.4886L47.7784 5.54545Z" fill="#A59DFF"/>
<path d="M72.3807 23.2557C71.0682 23.2557 69.9347 22.983 68.9801 22.4375C68.0313 21.8864 67.3011 21.108 66.7898 20.1023C66.2784 19.0909 66.0227 17.9006 66.0227 16.5312C66.0227 15.1847 66.2784 14.0028 66.7898 12.9858C67.3068 11.9631 68.0284 11.1676 68.9545 10.5994C69.8807 10.0256 70.9688 9.73864 72.2188 9.73864C73.0256 9.73864 73.7869 9.86932 74.5028 10.1307C75.2244 10.3864 75.8608 10.7841 76.4119 11.3239C76.9688 11.8636 77.4063 12.5511 77.7244 13.3864C78.0426 14.2159 78.2017 15.2045 78.2017 16.3523V17.2983H67.4716V15.2188H75.2443C75.2386 14.6278 75.1108 14.1023 74.8608 13.642C74.6108 13.1761 74.2614 12.8097 73.8125 12.5426C73.3693 12.2756 72.8523 12.142 72.2614 12.142C71.6307 12.142 71.0767 12.2955 70.5994 12.6023C70.1222 12.9034 69.75 13.3011 69.483 13.7955C69.2216 14.2841 69.0881 14.821 69.0824 15.4062V17.2216C69.0824 17.983 69.2216 18.6364 69.5 19.1818C69.7784 19.7216 70.1676 20.1364 70.6676 20.4261C71.1676 20.7102 71.7528 20.8523 72.4233 20.8523C72.8722 20.8523 73.2784 20.7898 73.642 20.6648C74.0057 20.5341 74.321 20.3438 74.5881 20.0938C74.8551 19.8438 75.0568 19.5341 75.1932 19.1648L78.0739 19.4886C77.892 20.25 77.5455 20.9148 77.0341 21.483C76.5284 22.0455 75.8807 22.483 75.0909 22.7955C74.3011 23.1023 73.3977 23.2557 72.3807 23.2557ZM84.5788 23.2642C83.7493 23.2642 83.0021 23.1165 82.3374 22.821C81.6783 22.5199 81.1555 22.0767 80.7692 21.4915C80.3885 20.9062 80.1982 20.1847 80.1982 19.3267C80.1982 18.5881 80.3345 17.9773 80.6072 17.4943C80.88 17.0114 81.2521 16.625 81.7237 16.3352C82.1953 16.0455 82.7266 15.8267 83.3175 15.679C83.9141 15.5256 84.5305 15.4148 85.1669 15.3466C85.9339 15.267 86.5561 15.196 87.0334 15.1335C87.5107 15.0653 87.8572 14.9631 88.0732 14.8267C88.2947 14.6847 88.4055 14.4659 88.4055 14.1705V14.1193C88.4055 13.4773 88.2152 12.9801 87.8345 12.6278C87.4538 12.2756 86.9055 12.0994 86.1896 12.0994C85.4339 12.0994 84.8345 12.2642 84.3913 12.5938C83.9538 12.9233 83.6584 13.3125 83.505 13.7614L80.6243 13.3523C80.8516 12.5568 81.2266 11.892 81.7493 11.358C82.272 10.8182 82.9112 10.4148 83.6669 10.1477C84.4226 9.875 85.2578 9.73864 86.1726 9.73864C86.8033 9.73864 87.4311 9.8125 88.0561 9.96023C88.6811 10.108 89.2521 10.3523 89.7692 10.6932C90.2862 11.0284 90.701 11.4858 91.0135 12.0653C91.3317 12.6449 91.4908 13.3693 91.4908 14.2386V23H88.5249V21.2017H88.4226C88.2351 21.5653 87.9709 21.9062 87.63 22.2244C87.2947 22.5369 86.8714 22.7898 86.3601 22.983C85.8544 23.1705 85.2607 23.2642 84.5788 23.2642ZM85.38 20.9972C85.9993 20.9972 86.5362 20.875 86.9908 20.6307C87.4453 20.3807 87.7947 20.0511 88.0391 19.642C88.2891 19.233 88.4141 18.7869 88.4141 18.304V16.7614C88.3175 16.8409 88.1527 16.9148 87.9197 16.983C87.6925 17.0511 87.4368 17.1108 87.1527 17.1619C86.8686 17.2131 86.5874 17.2585 86.3089 17.2983C86.0305 17.3381 85.7891 17.3722 85.5845 17.4006C85.1243 17.4631 84.7124 17.5653 84.3487 17.7074C83.9851 17.8494 83.6982 18.0483 83.4879 18.304C83.2777 18.554 83.1726 18.8778 83.1726 19.2756C83.1726 19.8438 83.38 20.2727 83.7947 20.5625C84.2095 20.8523 84.7379 20.9972 85.38 20.9972ZM94.593 23V9.90909H97.5845V12.0909H97.7209C97.9595 11.3352 98.3686 10.7528 98.9482 10.3438C99.5334 9.92898 100.201 9.72159 100.951 9.72159C101.121 9.72159 101.312 9.73011 101.522 9.74716C101.738 9.75852 101.917 9.77841 102.059 9.80682V12.6449C101.928 12.5994 101.721 12.5597 101.437 12.5256C101.158 12.4858 100.888 12.4659 100.627 12.4659C100.065 12.4659 99.5589 12.5881 99.1101 12.8324C98.6669 13.071 98.3175 13.4034 98.0618 13.8295C97.8061 14.2557 97.6783 14.7472 97.6783 15.304V23H94.593ZM107.194 15.3295V23H104.109V9.90909H107.058V12.1335H107.211C107.512 11.4006 107.992 10.8182 108.651 10.3864C109.316 9.95455 110.137 9.73864 111.114 9.73864C112.018 9.73864 112.805 9.93182 113.475 10.3182C114.151 10.7045 114.674 11.2642 115.043 11.9972C115.418 12.7301 115.603 13.6193 115.597 14.6648V23H112.512V15.142C112.512 14.267 112.285 13.5824 111.83 13.0881C111.381 12.5937 110.759 12.3466 109.964 12.3466C109.424 12.3466 108.944 12.4659 108.523 12.7045C108.109 12.9375 107.782 13.2756 107.543 13.7188C107.31 14.1619 107.194 14.6989 107.194 15.3295Z" fill="white"/>
</svg>
