<svg width="22" height="22" viewBox="0 0 22 22" fill="none" xmlns="http://www.w3.org/2000/svg">
<path d="M11.0007 6.83333C13.3007 6.83333 15.1673 8.7 15.1673 11C15.1673 11.5417 15.059 12.05 14.8673 12.525L17.3007 14.9583C18.559 13.9083 19.5506 12.55 20.159 11C18.7173 7.34167 15.159 4.75 10.9923 4.75C9.82565 4.75 8.70898 4.95833 7.67565 5.33333L9.47565 7.13333C9.95065 6.94167 10.459 6.83333 11.0007 6.83333ZM2.66732 4.55833L4.56732 6.45833L4.95065 6.84167C3.56732 7.91667 2.48398 9.35 1.83398 11C3.27565 14.6583 6.83398 17.25 11.0007 17.25C12.2923 17.25 13.5257 17 14.6507 16.55L15.0007 16.9L17.4423 19.3333L18.5007 18.275L3.72565 3.5L2.66732 4.55833ZM7.27565 9.16667L8.56732 10.4583C8.52565 10.6333 8.50065 10.8167 8.50065 11C8.50065 12.3833 9.61732 13.5 11.0007 13.5C11.184 13.5 11.3673 13.475 11.5423 13.4333L12.834 14.725C12.2757 15 11.659 15.1667 11.0007 15.1667C8.70065 15.1667 6.83398 13.3 6.83398 11C6.83398 10.3417 7.00065 9.725 7.27565 9.16667ZM10.8673 8.51667L13.4923 11.1417L13.509 11.0083C13.509 9.625 12.3923 8.50833 11.009 8.50833L10.8673 8.51667Z" fill="#C2C9D1"/>
<path d="M11.0007 6.83333C13.3007 6.83333 15.1673 8.7 15.1673 11C15.1673 11.5417 15.059 12.05 14.8673 12.525L17.3007 14.9583C18.559 13.9083 19.5506 12.55 20.159 11C18.7173 7.34167 15.159 4.75 10.9923 4.75C9.82565 4.75 8.70898 4.95833 7.67565 5.33333L9.47565 7.13333C9.95065 6.94167 10.459 6.83333 11.0007 6.83333ZM2.66732 4.55833L4.56732 6.45833L4.95065 6.84167C3.56732 7.91667 2.48398 9.35 1.83398 11C3.27565 14.6583 6.83398 17.25 11.0007 17.25C12.2923 17.25 13.5257 17 14.6507 16.55L15.0007 16.9L17.4423 19.3333L18.5007 18.275L3.72565 3.5L2.66732 4.55833ZM7.27565 9.16667L8.56732 10.4583C8.52565 10.6333 8.50065 10.8167 8.50065 11C8.50065 12.3833 9.61732 13.5 11.0007 13.5C11.184 13.5 11.3673 13.475 11.5423 13.4333L12.834 14.725C12.2757 15 11.659 15.1667 11.0007 15.1667C8.70065 15.1667 6.83398 13.3 6.83398 11C6.83398 10.3417 7.00065 9.725 7.27565 9.16667ZM10.8673 8.51667L13.4923 11.1417L13.509 11.0083C13.509 9.625 12.3923 8.50833 11.009 8.50833L10.8673 8.51667Z" fill="black" fill-opacity="0.25"/>
</svg>
