<svg width="22" height="22" viewBox="0 0 22 22" fill="none" xmlns="http://www.w3.org/2000/svg">
<path d="M11.0007 5.75C6.83398 5.75 3.27565 8.34167 1.83398 12C3.27565 15.6583 6.83398 18.25 11.0007 18.25C15.1673 18.25 18.7257 15.6583 20.1673 12C18.7257 8.34167 15.1673 5.75 11.0007 5.75ZM11.0007 16.1667C8.70065 16.1667 6.83398 14.3 6.83398 12C6.83398 9.7 8.70065 7.83333 11.0007 7.83333C13.3006 7.83333 15.1673 9.7 15.1673 12C15.1673 14.3 13.3006 16.1667 11.0007 16.1667ZM11.0007 9.5C9.61732 9.5 8.50065 10.6167 8.50065 12C8.50065 13.3833 9.61732 14.5 11.0007 14.5C12.384 14.5 13.5007 13.3833 13.5007 12C13.5007 10.6167 12.384 9.5 11.0007 9.5Z" fill="#C2C9D1"/>
<path d="M11.0007 5.75C6.83398 5.75 3.27565 8.34167 1.83398 12C3.27565 15.6583 6.83398 18.25 11.0007 18.25C15.1673 18.25 18.7257 15.6583 20.1673 12C18.7257 8.34167 15.1673 5.75 11.0007 5.75ZM11.0007 16.1667C8.70065 16.1667 6.83398 14.3 6.83398 12C6.83398 9.7 8.70065 7.83333 11.0007 7.83333C13.3006 7.83333 15.1673 9.7 15.1673 12C15.1673 14.3 13.3006 16.1667 11.0007 16.1667ZM11.0007 9.5C9.61732 9.5 8.50065 10.6167 8.50065 12C8.50065 13.3833 9.61732 14.5 11.0007 14.5C12.384 14.5 13.5007 13.3833 13.5007 12C13.5007 10.6167 12.384 9.5 11.0007 9.5Z" fill="black" fill-opacity="0.25"/>
</svg>
